<?xml version="1.0" encoding="iso-8859-1"?>
<!-- Uploaded to: SVG Repo, www.svgrepo.com, Generator: SVG Repo Mixer Tools -->
<svg height="800px" width="800px" version="1.1" id="Layer_1" xmlns="http://www.w3.org/2000/svg" xmlns:xlink="http://www.w3.org/1999/xlink" 
	 viewBox="0 0 512 512" xml:space="preserve">
<g>
	<path style="fill:#B0D3F0;" d="M406.069,264.828V220.69h-8.828v-52.966h88.276v52.966h-8.828v44.138h8.828v114.759
		c0,24.717-19.421,44.138-44.138,44.138c-24.717,0-44.138-19.421-44.138-44.138V264.828H406.069z"/>
	<path style="fill:#B0D3F0;" d="M105.931,150.069V97.103h8.828V52.966H26.483v44.138h8.828v52.966h-8.828v114.759
		c0,24.717,19.421,44.138,44.138,44.138s44.138-19.421,44.138-44.138V150.069H105.931z"/>
</g>
<path style="fill:#ECF0F1;" d="M485.517,512H308.966l-17.655-17.655h-61.793L211.862,512H26.483C11.476,512,0,500.524,0,485.517
	s11.476-26.483,26.483-26.483h459.034c15.007,0,26.483,11.476,26.483,26.483S500.524,512,485.517,512"/>
<path style="fill:#90BAE1;" d="M128,52.966H13.241c-2.648,0-4.414-1.766-4.414-4.414V4.414C8.828,1.766,10.593,0,13.241,0H128
	c2.648,0,4.414,1.766,4.414,4.414v44.138C132.414,51.2,130.648,52.966,128,52.966"/>
<path style="fill:#51E570;" d="M26.483,194.207v70.621c0,24.717,19.421,44.138,44.138,44.138s44.138-19.421,44.138-44.138v-70.621
	H26.483z"/>
<g>
	<path style="fill:#ECF0F1;" d="M291.31,158.897h-61.793c-5.297,0-8.828-4.414-8.828-8.828V97.103c0-5.297,3.531-8.828,8.828-8.828
		h61.793c5.297,0,8.828,4.414,8.828,8.828v52.966C300.138,154.483,295.724,158.897,291.31,158.897"/>
	<path style="fill:#ECF0F1;" d="M291.31,273.655h-61.793c-5.297,0-8.828-4.414-8.828-8.828v-52.966c0-5.297,3.531-8.828,8.828-8.828
		h61.793c5.297,0,8.828,4.414,8.828,8.828v52.966C300.138,269.241,295.724,273.655,291.31,273.655"/>
</g>
<g>
	<path style="fill:#BDC3C7;" d="M291.31,88.276V57.379c0-2.648-1.766-4.414-4.414-4.414h-52.966c-2.648,0-4.414,1.766-4.414,4.414
		v30.897H291.31z"/>
	<polygon style="fill:#BDC3C7;" points="229.517,203.034 291.31,203.034 291.31,158.897 229.517,158.897 	"/>
	<polygon style="fill:#BDC3C7;" points="227.752,459.034 289.545,459.034 289.545,273.655 227.752,273.655 	"/>
</g>
<polygon style="fill:#ECF0F1;" points="141.241,141.241 220.69,141.241 220.69,105.931 141.241,105.931 "/>
<g>
	<path style="fill:#4F596E;" d="M136.828,158.897h-26.483c-2.648,0-4.414-1.766-4.414-4.414V92.69c0-2.648,1.766-4.414,4.414-4.414
		h26.483c2.648,0,4.414,1.766,4.414,4.414v61.793C141.241,157.131,139.476,158.897,136.828,158.897"/>
	<path style="fill:#4F596E;" d="M30.897,158.897H4.414c-2.648,0-4.414-1.766-4.414-4.414V92.69c0-2.648,1.766-4.414,4.414-4.414
		h26.483c2.648,0,4.414,1.766,4.414,4.414v61.793C35.31,157.131,33.545,158.897,30.897,158.897"/>
	<path style="fill:#4F596E;" d="M507.586,273.655h-26.483c-2.648,0-4.414-1.766-4.414-4.414v-61.793
		c0-2.648,1.766-4.414,4.414-4.414h26.483c2.648,0,4.414,1.766,4.414,4.414v61.793C512,271.89,510.234,273.655,507.586,273.655"/>
</g>
<path style="fill:#90BAE1;" d="M384,167.724h114.759c2.648,0,4.414-1.766,4.414-4.414v-44.138c0-2.648-1.766-4.414-4.414-4.414H384
	c-2.648,0-4.414,1.766-4.414,4.414v44.138C379.586,165.959,381.352,167.724,384,167.724"/>
<path style="fill:#51E570;" d="M485.517,344.276v35.31c0,24.717-19.421,44.138-44.138,44.138c-24.717,0-44.138-19.421-44.138-44.138
	v-35.31H485.517z"/>
<polygon style="fill:#ECF0F1;" points="300.138,256 370.759,256 370.759,220.69 300.138,220.69 "/>
<path style="fill:#4F596E;" d="M375.172,273.655h26.483c2.648,0,4.414-1.766,4.414-4.414v-61.793c0-2.648-1.766-4.414-4.414-4.414
	h-26.483c-2.648,0-4.414,1.766-4.414,4.414v61.793C370.759,271.89,372.524,273.655,375.172,273.655"/>
</svg>