<?xml version="1.0" encoding="utf-8"?><!-- Uploaded to: SVG Repo, www.svgrepo.com, Generator: SVG Repo Mixer Tools -->
<svg fill="#000000" width="800px" height="800px" viewBox="0 0 24 24" id="medical-insurance" data-name="Line Color" xmlns="http://www.w3.org/2000/svg" class="icon line-color"><path id="secondary" d="M12,14V10m2,2H10" style="fill: none; stroke: rgb(44, 169, 188); stroke-linecap: round; stroke-linejoin: round; stroke-width: 2;"></path><path id="primary" d="M19,5a1,1,0,0,1,1,1V9.54a12.31,12.31,0,0,1-7.61,11.38,1,1,0,0,1-.78,0A12.31,12.31,0,0,1,4,9.54V6A1,1,0,0,1,5,5a12.6,12.6,0,0,0,7-2A12.6,12.6,0,0,0,19,5Z" style="fill: none; stroke: rgb(0, 0, 0); stroke-linecap: round; stroke-linejoin: round; stroke-width: 2;"></path></svg>